<svg width="98" height="25" viewBox="0 0 98 25" fill="none" xmlns="http://www.w3.org/2000/svg">
<path d="M7.12368 0V18.0715H15.3159V25H0V0H7.12368Z" fill="white"/>
<path d="M17.4614 25V0H24.585V25H17.4614Z" fill="white"/>
<path d="M41.6037 12.1429L49.3686 25H41.4612L35.2636 14.2858V25H28.1399V0H35.2636V10L41.105 0H49.0124L41.6037 12.1429Z" fill="white"/>
<path d="M57.9077 15.6429V18.4286H67.1685V25H50.784V0H66.9905V6.50002H57.9077V9.21431H66.1V15.6429H57.9077Z" fill="white"/>
<path d="M70.4719 25V0H77.4427V25H70.4719Z" fill="#FC342A"/>
<path d="M79.5273 0H98V6.9286H92.2491V25H85.2782V6.9286H79.5273V0Z" fill="#FC342A"/>
</svg>
