<svg width="200" height="49" viewBox="0 0 200 49" fill="none" xmlns="http://www.w3.org/2000/svg">
<path d="M0 15C0 6.71573 6.71573 0 15 0H89C97.2843 0 104 6.71573 104 15V42V49L94 42H15C6.71573 42 0 35.2843 0 27V15Z" fill="#5416A4"/>
<path d="M15.8896 30.44V0H19.5616V19.964L26.9596 11H31.4416L23.3146 20.585L31.9546 30.44H27.3106L19.5616 21.584V30.44H15.8896Z" fill="white"/>
<path d="M33.8457 30.44V15.86H37.0857V19.424L36.7347 18.965C36.9237 18.461 37.1757 18.002 37.4907 17.588C37.8057 17.174 38.1927 16.832 38.6517 16.562C39.0027 16.346 39.3852 16.1795 39.7992 16.0625C40.2132 15.9365 40.6407 15.86 41.0817 15.833C41.5227 15.797 41.9637 15.806 42.4047 15.86V19.289C41.9997 19.163 41.5272 19.1225 40.9872 19.1675C40.4562 19.2035 39.9747 19.325 39.5427 19.532C39.1107 19.73 38.7462 19.9955 38.4492 20.3285C38.1522 20.6525 37.9272 21.0395 37.7742 21.4895C37.6212 21.9305 37.5447 22.43 37.5447 22.988V30.44H33.8457Z" fill="white"/>
<path d="M48.759 30.845C47.715 30.845 46.8285 30.647 46.0995 30.251C45.3795 29.846 44.8305 29.3105 44.4525 28.6445C44.0835 27.9695 43.899 27.227 43.899 26.417C43.899 25.742 44.0025 25.1255 44.2095 24.5675C44.4165 24.0095 44.7495 23.519 45.2085 23.096C45.6765 22.664 46.302 22.304 47.085 22.016C47.625 21.818 48.2685 21.6425 49.0155 21.4895C49.7625 21.3365 50.6085 21.1925 51.5535 21.0575C52.4985 20.9135 53.538 20.756 54.672 20.585L53.349 21.314C53.349 20.45 53.142 19.8155 52.728 19.4105C52.314 19.0055 51.621 18.803 50.649 18.803C50.109 18.803 49.5465 18.9335 48.9615 19.1945C48.3765 19.4555 47.967 19.919 47.733 20.585L44.412 19.532C44.781 18.326 45.474 17.345 46.491 16.589C47.508 15.833 48.894 15.455 50.649 15.455C51.936 15.455 53.079 15.653 54.078 16.049C55.077 16.445 55.833 17.129 56.346 18.101C56.634 18.641 56.805 19.181 56.859 19.721C56.913 20.261 56.94 20.864 56.94 21.53V30.44H53.727V27.443L54.186 28.064C53.475 29.045 52.7055 29.756 51.8775 30.197C51.0585 30.629 50.019 30.845 48.759 30.845ZM49.542 27.956C50.217 27.956 50.784 27.839 51.243 27.605C51.711 27.362 52.08 27.0875 52.35 26.7815C52.629 26.4755 52.818 26.219 52.917 26.012C53.106 25.616 53.214 25.157 53.241 24.635C53.277 24.104 53.295 23.663 53.295 23.312L54.375 23.582C53.286 23.762 52.404 23.915 51.729 24.041C51.054 24.158 50.5095 24.266 50.0955 24.365C49.6815 24.464 49.317 24.572 49.002 24.689C48.642 24.833 48.3495 24.9905 48.1245 25.1615C47.9085 25.3235 47.7465 25.5035 47.6385 25.7015C47.5395 25.8995 47.49 26.12 47.49 26.363C47.49 26.696 47.571 26.984 47.733 27.227C47.904 27.461 48.1425 27.641 48.4485 27.767C48.7545 27.893 49.119 27.956 49.542 27.956Z" fill="white"/>
<path d="M59.1002 30.44V29.981L66.2552 19.046H59.9102V15.86H71.9252V16.319L64.7972 27.254H71.6552V30.44H59.1002Z" fill="white"/>
<path d="M74.5978 42L79.3067 29.198L79.3607 31.466L73.0157 15.86H76.8227L81.0887 26.903H80.2247L84.4637 15.86H88.1357L77.9998 42H74.5978Z" fill="white"/>
<path d="M123.768 33.4801C122.083 33.4801 120.563 33.1867 119.208 32.6001C117.864 32.0134 116.755 31.1761 115.88 30.0881C115.016 28.9894 114.467 27.6881 114.232 26.1841L118.232 25.5761C118.574 26.9414 119.272 27.9974 120.328 28.7441C121.395 29.4907 122.622 29.8641 124.008 29.8641C124.83 29.8641 125.603 29.7361 126.328 29.4801C127.054 29.2241 127.64 28.8507 128.088 28.3601C128.547 27.8694 128.776 27.2667 128.776 26.5521C128.776 26.2321 128.723 25.9387 128.616 25.6721C128.51 25.3947 128.35 25.1494 128.136 24.9361C127.934 24.7227 127.667 24.5307 127.336 24.3601C127.016 24.1787 126.643 24.0241 126.216 23.8961L120.264 22.1361C119.752 21.9867 119.198 21.7894 118.6 21.5441C118.014 21.2881 117.454 20.9414 116.92 20.5041C116.398 20.0561 115.966 19.4907 115.624 18.8081C115.294 18.1147 115.128 17.2614 115.128 16.2481C115.128 14.7654 115.502 13.5227 116.248 12.5201C117.006 11.5067 118.019 10.7494 119.288 10.2481C120.568 9.74672 121.987 9.50138 123.544 9.51205C125.123 9.52272 126.531 9.79472 127.768 10.3281C129.006 10.8507 130.04 11.6134 130.872 12.6161C131.704 13.6187 132.291 14.8294 132.632 16.2481L128.488 16.9681C128.318 16.1574 127.987 15.4694 127.496 14.9041C127.016 14.3281 126.424 13.8907 125.72 13.5921C125.027 13.2934 124.286 13.1334 123.496 13.1121C122.728 13.1014 122.014 13.2187 121.352 13.4641C120.702 13.6987 120.174 14.0401 119.768 14.4881C119.374 14.9361 119.176 15.4587 119.176 16.0561C119.176 16.6214 119.347 17.0854 119.688 17.4481C120.03 17.8001 120.451 18.0827 120.952 18.2961C121.464 18.4987 121.982 18.6694 122.504 18.8081L126.632 19.9601C127.198 20.1094 127.832 20.3121 128.536 20.5681C129.24 20.8241 129.918 21.1814 130.568 21.6401C131.219 22.0987 131.752 22.7014 132.168 23.4481C132.595 24.1947 132.808 25.1441 132.808 26.2961C132.808 27.4907 132.558 28.5414 132.056 29.4481C131.566 30.3441 130.899 31.0907 130.056 31.6881C129.214 32.2854 128.248 32.7334 127.16 33.0321C126.083 33.3307 124.952 33.4801 123.768 33.4801Z" fill="#5416A4"/>
<path d="M157.024 33.0001V22.5041C157.024 21.3201 156.73 20.3974 156.144 19.7361C155.557 19.0641 154.762 18.7281 153.76 18.7281C153.141 18.7281 152.586 18.8721 152.096 19.1601C151.605 19.4374 151.216 19.8534 150.928 20.4081C150.64 20.9521 150.496 21.6027 150.496 22.3601L148.784 21.3521C148.773 20.1574 149.04 19.1067 149.584 18.2001C150.138 17.2827 150.885 16.5681 151.824 16.0561C152.762 15.5441 153.808 15.2881 154.96 15.2881C156.869 15.2881 158.33 15.8641 159.344 17.0161C160.368 18.1574 160.88 19.6614 160.88 21.5281V33.0001H157.024ZM136.24 33.0001V15.7201H139.648V21.0801H140.128V33.0001H136.24ZM146.656 33.0001V22.5521C146.656 21.3467 146.362 20.4081 145.776 19.7361C145.189 19.0641 144.389 18.7281 143.376 18.7281C142.394 18.7281 141.605 19.0641 141.008 19.7361C140.421 20.4081 140.128 21.2827 140.128 22.3601L138.4 21.2081C138.4 20.0881 138.677 19.0801 139.232 18.1841C139.786 17.2881 140.533 16.5841 141.472 16.0721C142.421 15.5494 143.482 15.2881 144.656 15.2881C145.946 15.2881 147.024 15.5654 147.888 16.1201C148.762 16.6641 149.413 17.4107 149.84 18.3601C150.277 19.2987 150.496 20.3601 150.496 21.5441V33.0001H146.656Z" fill="#5416A4"/>
<path d="M169.885 33.4801C168.637 33.4801 167.581 33.2454 166.717 32.7761C165.853 32.2961 165.197 31.6614 164.749 30.8721C164.312 30.0827 164.093 29.2134 164.093 28.2641C164.093 27.4321 164.232 26.6854 164.509 26.0241C164.786 25.3521 165.213 24.7761 165.789 24.2961C166.365 23.8054 167.112 23.4054 168.029 23.0961C168.722 22.8721 169.533 22.6694 170.461 22.4881C171.4 22.3067 172.413 22.1414 173.501 21.9921C174.6 21.8321 175.746 21.6614 176.941 21.4801L175.565 22.2641C175.576 21.0694 175.309 20.1894 174.765 19.6241C174.221 19.0587 173.304 18.7761 172.013 18.7761C171.234 18.7761 170.482 18.9574 169.757 19.3201C169.032 19.6827 168.525 20.3067 168.237 21.1921L164.717 20.0881C165.144 18.6267 165.954 17.4534 167.149 16.5681C168.354 15.6827 169.976 15.2401 172.013 15.2401C173.549 15.2401 174.898 15.4907 176.061 15.9921C177.234 16.4934 178.104 17.3147 178.669 18.4561C178.978 19.0641 179.165 19.6881 179.229 20.3281C179.293 20.9574 179.325 21.6454 179.325 22.3921V33.0001H175.949V29.2561L176.509 29.8641C175.73 31.1121 174.818 32.0294 173.773 32.6161C172.738 33.1921 171.442 33.4801 169.885 33.4801ZM170.653 30.4081C171.528 30.4081 172.274 30.2534 172.893 29.9441C173.512 29.6347 174.002 29.2561 174.365 28.8081C174.738 28.3601 174.989 27.9387 175.117 27.5441C175.32 27.0534 175.432 26.4934 175.453 25.8641C175.485 25.2241 175.501 24.7067 175.501 24.3121L176.685 24.6641C175.522 24.8454 174.525 25.0054 173.693 25.1441C172.861 25.2827 172.146 25.4161 171.549 25.5441C170.952 25.6614 170.424 25.7947 169.965 25.9441C169.517 26.1041 169.138 26.2907 168.829 26.5041C168.52 26.7174 168.28 26.9627 168.109 27.2401C167.949 27.5174 167.869 27.8427 167.869 28.2161C167.869 28.6427 167.976 29.0214 168.189 29.3521C168.402 29.6721 168.712 29.9281 169.117 30.1201C169.533 30.3121 170.045 30.4081 170.653 30.4081Z" fill="#5416A4"/>
<path d="M183.458 33.0001L183.49 9.96005H187.394V24.0401L193.714 15.7201H198.53L191.826 24.3601L199.106 33.0001H194.002L187.394 24.6801V33.0001H183.458Z" fill="#5416A4"/>
</svg>
