<svg width="47" height="32" viewBox="0 0 47 32" fill="none" xmlns="http://www.w3.org/2000/svg">
<path d="M7.6975 27.1923C8.52593 27.1923 9.1975 26.5207 9.1975 25.6923C9.1975 24.8639 8.52593 24.1923 7.6975 24.1923V27.1923ZM17.1576 24.1923C16.3292 24.1923 15.6576 24.8639 15.6576 25.6923C15.6576 26.5207 16.3292 27.1923 17.1576 27.1923V24.1923ZM27.8 6.96154C26.9716 6.96154 26.3 7.63311 26.3 8.46154C26.3 9.28997 26.9716 9.96154 27.8 9.96154V6.96154ZM41.0407 9.22901L39.6695 9.83729V9.83729L41.0407 9.22901ZM44.8888 17.9031L43.5177 18.5114L43.5178 18.5118L44.8888 17.9031ZM39.625 24.1923C38.7966 24.1923 38.125 24.8639 38.125 25.6923C38.125 26.5207 38.7966 27.1923 39.625 27.1923V24.1923ZM12.75 31.5C15.9558 31.5 18.55 28.8974 18.55 25.6923H15.55C15.55 27.2455 14.2939 28.5 12.75 28.5V31.5ZM18.55 25.6923C18.55 22.4873 15.9558 19.8846 12.75 19.8846V22.8846C14.2939 22.8846 15.55 24.1391 15.55 25.6923H18.55ZM12.75 19.8846C9.54424 19.8846 6.95 22.4873 6.95 25.6923H9.95C9.95 24.1391 11.2061 22.8846 12.75 22.8846V19.8846ZM6.95 25.6923C6.95 28.8974 9.54424 31.5 12.75 31.5V28.5C11.2061 28.5 9.95 27.2455 9.95 25.6923H6.95ZM34.25 31.5C37.4556 31.5 40.05 28.8974 40.05 25.6923H37.05C37.05 27.2455 35.7938 28.5 34.25 28.5V31.5ZM40.05 25.6923C40.05 22.4872 37.4556 19.8846 34.25 19.8846V22.8846C35.7938 22.8846 37.05 24.1391 37.05 25.6923H40.05ZM34.25 19.8846C31.0442 19.8846 28.45 22.4873 28.45 25.6923H31.45C31.45 24.1391 32.7061 22.8846 34.25 22.8846V19.8846ZM28.45 25.6923C28.45 28.8974 31.0442 31.5 34.25 31.5V28.5C32.7061 28.5 31.45 27.2456 31.45 25.6923H28.45ZM29.3 25.6923V3.29231H26.3V25.6923H29.3ZM29.3 3.29231C29.3 1.75274 28.0535 0.5 26.51 0.5V3.5C26.3915 3.5 26.3 3.40443 26.3 3.29231H29.3ZM26.51 0.5H3.29V3.5H26.51V0.5ZM3.29 0.5C1.7466 0.5 0.5 1.75269 0.5 3.29231H3.5C3.5 3.40449 3.40851 3.5 3.29 3.5V0.5ZM0.5 3.29231V24.4H3.5V3.29231H0.5ZM0.5 24.4C0.5 25.9397 1.74666 27.1923 3.29 27.1923V24.1923C3.40845 24.1923 3.5 24.2878 3.5 24.4H0.5ZM3.29 27.1923H7.6975V24.1923H3.29V27.1923ZM27.8 24.1923H17.1576V27.1923H27.8V24.1923ZM27.8 9.96154H39.8616V6.96154H27.8V9.96154ZM39.8616 9.96154C39.7774 9.96154 39.7026 9.91187 39.6695 9.83729L42.4118 8.62073C41.9646 7.61274 40.9657 6.96154 39.8616 6.96154V9.96154ZM39.6695 9.83729L43.5177 18.5114L46.26 17.2949L42.4118 8.62073L39.6695 9.83729ZM43.5178 18.5118C43.5059 18.4849 43.5 18.4563 43.5 18.428H46.5C46.5 18.0384 46.4186 17.6522 46.2598 17.2945L43.5178 18.5118ZM43.5 18.428V24.4H46.5V18.428H43.5ZM43.5 24.4C43.5 24.2879 43.5914 24.1923 43.7101 24.1923V27.1923C45.2533 27.1923 46.5 25.9397 46.5 24.4H43.5ZM43.7101 24.1923H39.625V27.1923H43.7101V24.1923ZM27.8 27.1923H29.95V24.1923H27.8V27.1923Z" fill="#F2F2F2"/>
</svg>
