<svg width="34" height="32" viewBox="0 0 34 32" fill="none" xmlns="http://www.w3.org/2000/svg">
<path d="M22.9779 2.53138L22.5958 1.08086L22.5958 1.08086L22.9779 2.53138ZM4.49468 7.40027L4.87678 8.85079L4.87678 8.85078L4.49468 7.40027ZM28.8847 28.1353H5.36057V31.1353H28.8847V28.1353ZM5.36057 28.1353C4.31556 28.1353 3.5 27.3034 3.5 26.3157H0.5C0.5 28.995 2.69361 31.1353 5.36057 31.1353V28.1353ZM3.5 26.3157V11.3771H0.5V26.3157H3.5ZM3.5 11.3771C3.5 10.3894 4.31564 9.55741 5.36057 9.55741V6.55741C2.69353 6.55741 0.5 8.698 0.5 11.3771H3.5ZM5.36057 9.55741H28.8847V6.55741H5.36057V9.55741ZM28.8847 9.55741C29.9295 9.55741 30.7452 10.3894 30.7452 11.3771H33.7452C33.7452 8.69801 31.5517 6.55741 28.8847 6.55741V9.55741ZM30.7452 11.3771V26.3157H33.7452V11.3771H30.7452ZM30.7452 26.3157C30.7452 27.3035 29.9296 28.1353 28.8847 28.1353V31.1353C31.5516 31.1353 33.7452 28.995 33.7452 26.3157H30.7452ZM24.6839 18.1763C25.0311 18.1763 25.3438 18.459 25.3438 18.8464H22.3438C22.3438 20.1503 23.4089 21.1763 24.6839 21.1763V18.1763ZM25.3438 18.8464C25.3438 19.2338 25.0311 19.5165 24.6839 19.5165V16.5165C23.4089 16.5165 22.3438 17.5425 22.3438 18.8464H25.3438ZM24.6839 19.5165C24.3366 19.5165 24.024 19.2336 24.024 18.8464H27.024C27.024 17.5426 25.9591 16.5165 24.6839 16.5165V19.5165ZM24.024 18.8464C24.024 18.4592 24.3366 18.1763 24.6839 18.1763V21.1763C25.9591 21.1763 27.024 20.1502 27.024 18.8464H24.024ZM28.7043 8.05741V5.73898H25.7043V8.05741H28.7043ZM28.7043 5.73898C28.7043 2.54995 25.657 0.274523 22.5958 1.08086L23.36 3.9819C24.5659 3.66426 25.7043 4.56572 25.7043 5.73898H28.7043ZM22.5958 1.08086L4.11258 5.94975L4.87678 8.85078L23.36 3.9819L22.5958 1.08086ZM4.11258 5.94975C1.99348 6.50797 0.5 8.4115 0.5 10.6079H3.5C3.5 9.79623 4.05367 9.06761 4.87678 8.85079L4.11258 5.94975ZM0.5 10.6079V11.3771H3.5V10.6079H0.5Z" fill="#F2F2F2"/>
</svg>
