<svg width="130" height="32" viewBox="0 0 130 32" fill="none" xmlns="http://www.w3.org/2000/svg">
<path d="M0 13.7143C0 6.14009 6.1401 0 13.7143 0H52.9054C61.1897 0 67.9054 6.71573 67.9054 15V27.4286V32L61.376 27.4286H13.7143C6.14008 27.4286 0 21.2885 0 13.7143Z" fill="white"/>
<path d="M10.3789 19.8792V0H12.7765V13.0377L17.6069 7.18367H20.5334L15.227 13.4433L20.8683 19.8792H17.8361L12.7765 14.0957V19.8792H10.3789Z" fill="#5416A4"/>
<path d="M22.1031 19.8792V10.3575H24.2186V12.6851L23.9894 12.3853C24.1128 12.0562 24.2774 11.7564 24.483 11.486C24.6887 11.2157 24.9414 10.9923 25.2411 10.816C25.4703 10.6749 25.72 10.5662 25.9903 10.4898C26.2606 10.4075 26.5398 10.3575 26.8277 10.3399C27.1157 10.3164 27.4036 10.3223 27.6916 10.3575V12.5969C27.4271 12.5146 27.1186 12.4882 26.766 12.5176C26.4193 12.5411 26.1049 12.6204 25.8229 12.7556C25.5408 12.8849 25.3028 13.0583 25.1089 13.2758C24.9149 13.4873 24.768 13.7401 24.6681 14.034C24.5682 14.322 24.5183 14.6482 24.5183 15.0126V19.8792H22.1031Z" fill="#5416A4"/>
<path d="M31.8405 20.1437C31.1588 20.1437 30.58 20.0144 30.104 19.7558C29.6339 19.4913 29.2754 19.1416 29.0286 18.7066C28.7877 18.2658 28.6672 17.7809 28.6672 17.2519C28.6672 16.8111 28.7348 16.4085 28.87 16.0441C29.0051 15.6797 29.2225 15.3593 29.5222 15.0831C29.8278 14.801 30.2362 14.5659 30.7475 14.3778C31.1001 14.2485 31.5202 14.1339 32.008 14.034C32.4957 13.934 33.0481 13.84 33.6651 13.7518C34.2822 13.6578 34.9609 13.5549 35.7013 13.4433L34.8375 13.9193C34.8375 13.3551 34.7023 12.9407 34.432 12.6762C34.1617 12.4118 33.7092 12.2795 33.0746 12.2795C32.722 12.2795 32.3547 12.3647 31.9727 12.5352C31.5907 12.7056 31.3234 13.0083 31.1706 13.4433L29.0022 12.7556C29.2431 11.968 29.6956 11.3273 30.3596 10.8336C31.0237 10.3399 31.9286 10.0931 33.0746 10.0931C33.9149 10.0931 34.6612 10.2224 35.3135 10.481C35.9658 10.7396 36.4594 11.1863 36.7943 11.8211C36.9824 12.1737 37.094 12.5264 37.1293 12.879C37.1645 13.2317 37.1822 13.6255 37.1822 14.0604V19.8792H35.0843V17.922L35.384 18.3275C34.9197 18.9682 34.4173 19.4325 33.8767 19.7205C33.3419 20.0026 32.6632 20.1437 31.8405 20.1437ZM32.3517 18.257C32.7925 18.257 33.1627 18.1806 33.4624 18.0278C33.768 17.8691 34.0089 17.6898 34.1852 17.49C34.3674 17.2901 34.4908 17.1226 34.5554 16.9874C34.6788 16.7288 34.7493 16.4291 34.767 16.0882C34.7905 15.7414 34.8022 15.4534 34.8022 15.2242L35.5074 15.4005C34.7963 15.518 34.2205 15.618 33.7797 15.7002C33.339 15.7767 32.9835 15.8472 32.7131 15.9118C32.4428 15.9765 32.2048 16.047 31.9992 16.1234C31.7641 16.2175 31.5731 16.3203 31.4262 16.432C31.2852 16.5378 31.1794 16.6553 31.1089 16.7847C31.0442 16.914 31.0119 17.058 31.0119 17.2167C31.0119 17.4341 31.0648 17.6222 31.1706 17.7809C31.2822 17.9337 31.438 18.0513 31.6378 18.1335C31.8376 18.2158 32.0756 18.257 32.3517 18.257Z" fill="#5416A4"/>
<path d="M38.5927 19.8792V19.5794L43.2644 12.4382H39.1215V10.3575H46.9666V10.6573L42.3124 17.7985H46.7903V19.8792H38.5927Z" fill="#5416A4"/>
<path d="M48.7116 27.4286L51.7862 19.0681L51.8215 20.5492L47.6786 10.3575H50.1644L52.9498 17.5693H52.3856L55.1534 10.3575H57.551L50.9329 27.4286H48.7116Z" fill="#5416A4"/>
<path d="M80.8084 21.8647C79.708 21.8647 78.7156 21.6731 77.831 21.29C76.9535 20.9069 76.2292 20.3601 75.6581 19.6495C75.0939 18.932 74.7353 18.0822 74.582 17.1L77.1938 16.7029C77.4166 17.5946 77.8728 18.2842 78.5623 18.7718C79.2588 19.2594 80.0597 19.5032 80.9651 19.5032C81.5014 19.5032 82.0064 19.4196 82.48 19.2525C82.9535 19.0853 83.3366 18.8415 83.6291 18.521C83.9286 18.2006 84.0783 17.807 84.0783 17.3403C84.0783 17.1313 84.0435 16.9398 83.9739 16.7656C83.9042 16.5845 83.7998 16.4243 83.6605 16.2849C83.5281 16.1456 83.354 16.0202 83.1381 15.9088C82.9292 15.7904 82.6854 15.6894 82.4068 15.6058L78.5205 14.4564C78.1862 14.3589 77.8241 14.23 77.4341 14.0698C77.051 13.9026 76.6854 13.6762 76.3371 13.3906C75.9959 13.098 75.7138 12.7288 75.4909 12.283C75.275 11.8302 75.1671 11.2729 75.1671 10.6112C75.1671 9.64288 75.4108 8.83134 75.8984 8.17654C76.3928 7.51477 77.0545 7.02019 77.8833 6.69278C78.719 6.36538 79.6453 6.20517 80.6622 6.21213C81.6929 6.2191 82.6123 6.39673 83.4202 6.74503C84.2281 7.08636 84.9037 7.58443 85.4469 8.23923C85.9901 8.89404 86.3732 9.68468 86.5961 10.6112L83.8903 11.0814C83.7789 10.5519 83.563 10.1026 83.2426 9.73344C82.9292 9.35727 82.5426 9.07167 82.083 8.87662C81.6303 8.68157 81.1462 8.57708 80.6308 8.56315C80.1294 8.55619 79.6627 8.63281 79.2309 8.79303C78.8061 8.94628 78.4613 9.16919 78.1967 9.46176C77.939 9.75434 77.8101 10.0957 77.8101 10.4858C77.8101 10.855 77.9216 11.158 78.1445 11.3948C78.3673 11.6247 78.6424 11.8093 78.9698 11.9486C79.3041 12.081 79.6419 12.1924 79.9831 12.283L82.6784 13.0353C83.0476 13.1328 83.462 13.2652 83.9216 13.4324C84.3813 13.5996 84.8236 13.8329 85.2484 14.1325C85.6732 14.432 86.0215 14.8256 86.2931 15.3132C86.5717 15.8008 86.711 16.4208 86.711 17.1731C86.711 17.9533 86.5473 18.6395 86.22 19.2316C85.8996 19.8167 85.4643 20.3043 84.9141 20.6944C84.3639 21.0845 83.7336 21.3771 83.0232 21.5721C82.3198 21.7672 81.5815 21.8647 80.8084 21.8647Z" fill="white"/>
<path d="M102.522 21.5512V14.6967C102.522 13.9235 102.33 13.3209 101.947 12.889C101.564 12.4502 101.045 12.2307 100.391 12.2307C99.9869 12.2307 99.6247 12.3248 99.3043 12.5129C98.984 12.694 98.7297 12.9657 98.5417 13.3279C98.3537 13.6832 98.2596 14.1081 98.2596 14.6027L97.1418 13.9444C97.1348 13.1642 97.309 12.478 97.6642 11.8859C98.0263 11.2869 98.5138 10.8201 99.1267 10.4858C99.7396 10.1514 100.422 9.98421 101.174 9.98421C102.421 9.98421 103.375 10.3604 104.037 11.1127C104.705 11.8581 105.04 12.8403 105.04 14.0593V21.5512H102.522ZM88.9514 21.5512V10.2663H91.1766V13.7667H91.49V21.5512H88.9514ZM95.7524 21.5512V14.7281C95.7524 13.9409 95.5608 13.3279 95.1778 12.889C94.7947 12.4502 94.2724 12.2307 93.6107 12.2307C92.97 12.2307 92.4546 12.4502 92.0646 12.889C91.6815 13.3279 91.49 13.8991 91.49 14.6027L90.3617 13.8503C90.3617 13.1189 90.5428 12.4606 90.905 11.8755C91.2671 11.2903 91.7546 10.8306 92.3675 10.4962C92.9874 10.1549 93.6804 9.98421 94.4465 9.98421C95.2892 9.98421 95.9926 10.1653 96.5568 10.5276C97.1279 10.8828 97.5527 11.3704 97.8313 11.9904C98.1169 12.6034 98.2596 13.2965 98.2596 14.0698V21.5512H95.7524Z" fill="white"/>
<path d="M110.92 21.8647C110.105 21.8647 109.415 21.7115 108.851 21.4049C108.287 21.0915 107.859 20.677 107.566 20.1615C107.281 19.646 107.138 19.0783 107.138 18.4583C107.138 17.915 107.228 17.4274 107.409 16.9955C107.59 16.5566 107.869 16.1805 108.245 15.867C108.621 15.5466 109.109 15.2853 109.708 15.0833C110.16 14.937 110.69 14.8047 111.296 14.6863C111.909 14.5678 112.57 14.4599 113.281 14.3623C113.998 14.2578 114.747 14.1464 115.527 14.028L114.628 14.54C114.635 13.7598 114.461 13.1851 114.106 12.8159C113.751 12.4467 113.152 12.2621 112.309 12.2621C111.801 12.2621 111.31 12.3805 110.836 12.6174C110.362 12.8542 110.032 13.2617 109.844 13.8399L107.545 13.1189C107.824 12.1646 108.353 11.3983 109.133 10.8201C109.92 10.242 110.979 9.95287 112.309 9.95287C113.312 9.95287 114.193 10.1166 114.952 10.444C115.718 10.7714 116.286 11.3078 116.655 12.0531C116.857 12.4502 116.979 12.8577 117.021 13.2756C117.062 13.6866 117.083 14.1359 117.083 14.6236V21.5512H114.879V19.1062L115.245 19.5032C114.736 20.3183 114.141 20.9173 113.458 21.3005C112.783 21.6766 111.936 21.8647 110.92 21.8647ZM111.421 19.8585C111.992 19.8585 112.48 19.7575 112.884 19.5555C113.288 19.3535 113.608 19.1062 113.845 18.8136C114.089 18.521 114.252 18.2459 114.336 17.9881C114.468 17.6677 114.541 17.302 114.555 16.891C114.576 16.473 114.586 16.1352 114.586 15.8774L115.36 16.1073C114.6 16.2257 113.949 16.3302 113.406 16.4208C112.863 16.5113 112.396 16.5984 112.006 16.682C111.616 16.7586 111.271 16.8457 110.972 16.9432C110.679 17.0477 110.432 17.1696 110.23 17.3089C110.028 17.4483 109.871 17.6085 109.76 17.7896C109.655 17.9707 109.603 18.1832 109.603 18.427C109.603 18.7056 109.673 18.9529 109.812 19.1689C109.951 19.3778 110.153 19.545 110.418 19.6704C110.69 19.7958 111.024 19.8585 111.421 19.8585Z" fill="white"/>
<path d="M119.782 21.5512L119.803 6.5047H122.352V15.6998L126.479 10.2663H129.623L125.246 15.9088L129.999 21.5512H126.667L122.352 16.1178V21.5512H119.782Z" fill="white"/>
</svg>
